{"title":"Universal Squadrons 2011 DvDRip XviD Feel-Free","uid":6523125,"size":1044472478,"categoryP":"video","categoryS":"movies","magnet":"?xt=urn:btih:05dfafc636c09b71a1cf1beb8b0fca2bcadb0833&amp;dn=Universal+Squadrons+2011+DvDRip+XviD+Feel-Free&amp;tr=udp%3A%2F%2Ftracker.openbittorrent.com%3A80&amp;tr=udp%3A%2F%2Fopen.demonii.com%3A1337&amp;tr=udp%3A%2F%2Ftracker.coppersurfer.tk%3A6969&amp;tr=udp%3A%2F%2Fexodus.desync.com%3A6969","seeders":0,"leechers":1,"uploader":"hiest","files":-1,"time":1310065151,"description":" Full Credits To Feel Free :)\n\n ######## ######## ######## ##          ######## ########  ######## ######## \n ##       ##       ##       ##          ##       ##     ## ##       ##       \n ##       ##       ##       ##          ##       ##     ## ##       ##       \n ######   ######   ######   ##          ######   ########  ######   ######   \n ##       ##       ##       ##          ##       ##   ##   ##       ##       \n ##       ##       ##       ##          ##       ##    ##  ##       ##       \n ##       ######## ######## ########    ##       ##     ## ######## ########\n\n\n Genre:Thriller\n Language:English\n &lt;a href=&quot; http://www.imdb.com/title/tt1535606/&quot; rel=&quot;nofollow&quot; target=&quot;_NEW&quot;&gt; http://www.imdb.com/title/tt1535606/&lt;/a&gt;\n Source:DVD Thanks!\n\n Format : AVI\n Format/Info : Audio Video Interleave\n File size : 994 MiB\n Duration : 1h 22mn\n Overall bit rate : 1 681 Kbps\n\n Video\n ID : 0\n Format : MPEG-4 Visual\n Format profile : Advanced Simple@L5\n Format settings, BVOP : Yes\n Format settings, QPel : No\n Format settings, GMC : No warppoints\n Format settings, Matrix : Default (H.263)\n Codec ID : XVID\n Codec ID/Hint : XviD\n Duration : 1h 22mn\n Bit rate : 1 222 Kbps\n Width : 640 pixels\n Height : 360 pixels\n Display aspect ratio : 16:9\n Frame rate : 29.970 fps\n Color space : YUV\n Chroma subsampling : 4:2:0\n Bit depth : 8 bits\n Scan type : Progressive\n Bits/(Pixel*Frame) : 0.177\n Stream size : 723 MiB (73%)\n Writing library : XviD 1.2.1 (UTC 2008-12-04)\n\n Audio\n ID : 1\n Format : AC-3\n Format/Info : Audio Coding 3\n Mode extension : CM (complete main)\n Codec ID : 2000\n Duration : 1h 22mn\n Bit rate mode : Constant\n Bit rate : 448 Kbps\n Channel(s) : 2 channels\n Channel positions : Front: L R\n Sampling rate : 48.0 KHz\n Bit depth : 16 bits\n Stream size : 265 MiB (27%)\n Alignment : Aligned on interleaves\n Interleave, duration : 33 ms (1.00 video frame)\n Interleave, preload duration : 512 ms\n\n\n Plot:\n After returning to civilian life as a Texas rancher, Captain Lance Deakin fends \n off attacks from former..\n\n\n Screen Shots:\n\n &lt;a href=&quot; http://leetleech.org/images/17344442018510306405.png&quot; rel=&quot;nofollow&quot; target=&quot;_NEW&quot;&gt; http://leetleech.org/images/17344442018510306405.png&lt;/a&gt;\n\n &lt;a href=&quot; http://leetleech.org/images/46225258373970983407.png&quot; rel=&quot;nofollow&quot; target=&quot;_NEW&quot;&gt; http://leetleech.org/images/46225258373970983407.png&lt;/a&gt;\n\n &lt;a href=&quot; http://leetleech.org/images/31411953427810658637.png&quot; rel=&quot;nofollow&quot; target=&quot;_NEW&quot;&gt; http://leetleech.org/images/31411953427810658637.png&lt;/a&gt;\n\n &lt;a href=&quot; http://leetleech.org/images/13813628896401557512.png&quot; rel=&quot;nofollow&quot; target=&quot;_NEW&quot;&gt; http://leetleech.org/images/13813628896401557512.png&lt;/a&gt;\n\n\n Full Credits To Feel Free :)\n\n ######## ######## ######## ##          ######## ########  ######## ######## \n ##       ##       ##       ##          ##       ##     ## ##       ##       \n ##       ##       ##       ##          ##       ##     ## ##       ##       \n ######   ######   ######   ##          ######   ########  ######   ######   \n ##       ##       ##       ##          ##       ##   ##   ##       ##       \n ##       ##       ##       ##          ##       ##    ##  ##       ##       \n ##       ######## ######## ########    ##       ##     ## ######## ########","torrent":{"xt":"urn:btih:05dfafc636c09b71a1cf1beb8b0fca2bcadb0833","amp;dn":"Universal+Squadrons+2011+DvDRip+XviD+Feel-Free","amp;tr":["udp%3A%2F%2Ftracker.openbittorrent.com%3A80","udp%3A%2F%2Fopen.demonii.com%3A1337","udp%3A%2F%2Ftracker.coppersurfer.tk%3A6969","udp%3A%2F%2Fexodus.desync.com%3A6969"],"infoHash":"05dfafc636c09b71a1cf1beb8b0fca2bcadb0833","infoHashBuffer":{"type":"Buffer","data":[5,223,175,198,54,192,155,113,161,207,27,235,139,15,202,43,202,219,8,51]},"announce":[],"urlList":[]}}